PathFileType	4	(X/Y/Z)	D:\TRACE\v60_Jaco2_6-2-23\BothDRS_Motion3_10-platform.trc
DataRate	CameraRate	NumFrames	NumMarkers	Units	OrigDataRate	OrigDataStartFrame	OrigNumFrames
100.00	100.00	      67	5	mm	100.00	1751	      7000
Frame#	Time	Left_Front			Right_Front			Left_Aft			Right_Aft			Post			
		X1	Y1	Z1	X2	Y2	Z2	X3	Y3	Z3	X4	Y4	Z4	X5	Y5	Z5	

1751	17.500	-804.66022	6.64323	-652.03369	765.98199	4.62384	-629.19415	-735.27435	14.51357	484.40649	678.99823	11.42103	587.49713	-9.23723	1302.10010	-972.36206	
1752	17.510	-804.67053	6.65409	-652.04370	766.00214	4.57903	-629.17499	-735.32690	14.46565	484.37729	678.89966	11.36849	587.45477	-9.16243	1302.10962	-971.70551	
1753	17.520	-804.70172	6.75241	-652.06006	765.94702	4.56090	-629.19098	-735.35999	14.52111	484.37744	678.86206	11.40511	587.48877	-9.18850	1302.21765	-971.48737	
1754	17.530	-804.70367	6.79419	-652.05591	765.96887	4.63729	-629.19897	-735.29138	14.53418	484.39755	678.93573	11.41068	587.51288	-9.18970	1302.24231	-971.22559	
1755	17.540	-804.71338	6.83406	-652.02417	765.86334	4.93941	-629.21759	-735.38928	14.48903	484.42569	678.78845	11.27837	587.52887	-9.20065	1302.32642	-971.08911	
1756	17.550	-804.73065	6.86701	-651.99683	765.67670	5.04813	-629.23523	-735.43793	14.32158	484.42181	678.62982	11.08916	587.52783	-9.25805	1302.53979	-970.94757	
1757	17.560	-804.75208	6.93252	-651.99847	765.67615	5.06850	-629.19489	-735.59521	14.15716	484.44205	678.64459	11.01534	587.56213	-9.38842	1302.67725	-970.90985	
1758	17.570	-804.75464	6.97017	-651.93933	765.64502	5.33150	-629.15106	-735.65851	14.05326	484.46378	678.68463	10.93638	587.62018	-9.32288	1302.93542	-970.85211	
1759	17.580	-804.84668	7.09242	-651.88617	765.57013	5.62296	-629.14288	-735.70795	13.98652	484.48285	678.74207	10.76992	587.67047	-9.35007	1303.24109	-970.95544	
1760	17.590	-804.56927	7.26494	-651.54095	765.58777	5.79396	-629.11438	-735.66925	13.92799	484.53983	678.73218	10.70001	587.73474	-9.38207	1303.57458	-970.85522	
1761	17.600	-804.62750	7.40021	-651.56262	765.58807	5.84515	-629.07983	-735.68860	13.78408	484.53119	678.74133	10.47938	587.73395	-9.41796	1303.80530	-970.65277	
1762	17.610	-804.62231	7.46344	-651.48907	765.56903	5.93235	-629.00800	-735.74194	13.58665	484.56387	678.54596	10.39412	587.84296	-9.42822	1303.96228	-970.36450	
1763	17.620	-804.58649	7.50878	-651.39600	765.57416	6.02480	-628.95410	-735.77856	13.54995	484.61517	678.49384	10.35774	587.84515	-9.51620	1304.12280	-969.79901	
1764	17.630	-804.57373	7.52069	-651.37885	765.53265	6.20855	-628.88647	-735.75653	13.46458	484.65384	678.44702	10.43164	587.88751	-9.92594	1304.29395	-969.44476	
1765	17.640	-804.60962	7.61783	-651.33844	765.59668	6.24277	-628.91693	-735.68176	13.41250	484.63828	678.77502	10.21990	587.83765	-9.71661	1304.52332	-968.51434	
1766	17.650	-804.88312	8.01800	-651.84955	765.57782	6.37710	-628.87793	-735.73608	13.32030	484.64270	678.75275	10.12343	587.81683	-9.75248	1304.79004	-968.02521	
1767	17.660	-804.92834	8.11686	-651.79260	765.54712	6.49656	-628.75732	-735.85010	13.21933	484.62921	678.67810	10.05515	587.79572	-9.75793	1304.82043	-967.45465	
1768	17.670	-804.96649	8.18616	-651.73120	765.42224	6.56471	-628.68146	-735.88318	13.12755	484.70325	678.62878	9.99401	587.82062	-9.71048	1304.97485	-967.02618	
1769	17.680	-805.07281	8.41789	-651.66791	765.43579	6.69297	-628.59558	-735.83545	12.98735	484.75781	678.56854	9.87592	587.85266	-9.78425	1305.17041	-966.79315	
1770	17.690	-805.05908	8.54204	-651.60583	765.44171	6.83206	-628.58704	-735.79657	12.86887	484.79517	678.64673	9.83230	587.95978	-9.76634	1305.41125	-966.70917	
1771	17.700	-805.16241	8.80704	-651.54449	765.47046	7.06325	-628.65936	-735.85168	12.80688	484.77786	678.51062	9.65936	587.97131	-9.68798	1305.62219	-966.65967	
1772	17.710	-805.14331	9.04754	-651.58447	765.45557	7.17004	-628.61426	-735.85120	12.76816	484.81366	678.45038	9.32138	587.76495	-9.70821	1305.89075	-966.65674	
1773	17.720	-805.17352	9.14453	-651.48712	765.41864	7.34678	-628.57513	-735.82703	12.65012	484.81589	678.39502	9.17313	587.78558	-9.71233	1306.03394	-966.66583	
1774	17.730	-805.12726	9.21961	-651.46973	765.30658	7.48725	-628.50751	-735.85828	12.53316	484.86929	678.37189	8.98728	587.91327	-9.78891	1306.28369	-966.58112	
1775	17.740	-805.23346	9.15916	-651.54590	765.35968	7.68818	-628.48950	-735.80566	12.40190	484.84393	678.35620	8.83318	587.96686	-9.75130	1306.51770	-966.35077	
1776	17.750	-805.22479	9.34456	-651.55939	765.35626	7.76551	-628.46637	-735.82611	12.33568	484.86395	678.27661	8.76303	588.07330	-9.78915	1306.78223	-966.24243	
1777	17.760	-805.17932	9.47715	-651.51373	765.39648	7.83747	-628.45599	-735.81018	12.26810	484.85291	678.30145	8.68271	588.00262	-9.83007	1306.90674	-965.95709	
1778	17.770	-805.04462	9.48771	-651.62335	765.34491	7.92692	-628.47308	-735.83661	12.16383	484.83871	678.22888	8.57589	588.02899	-9.86934	1307.02637	-965.57239	
1779	17.780	-805.10846	9.52360	-651.60864	765.28259	7.99233	-628.46252	-735.89233	12.03675	484.90970	678.24805	8.52984	588.07892	-9.92483	1307.14233	-965.00092	
1780	17.790	-805.27094	9.62790	-651.34863	765.46167	8.13417	-628.18225	-735.92450	11.90643	485.06873	678.23090	8.38216	588.12122	-9.94629	1307.20264	-964.58545	
1781	17.800	-805.20044	9.79463	-651.28802	765.23163	8.21961	-628.41595	-735.92932	11.77524	485.13464	678.16827	8.40475	588.22168	-10.07028	1307.31079	-964.12323	
1782	17.810	-805.22461	9.97766	-651.28088	765.24622	8.34621	-628.37299	-735.91193	11.76330	485.11655	678.12012	8.38015	588.25177	-9.95335	1307.51624	-963.53937	
1783	17.820	-805.32861	10.19474	-651.24713	765.26563	8.46559	-628.33643	-735.93219	11.63539	485.15472	678.17346	8.32484	588.26044	-9.89488	1307.81982	-963.24933	
1784	17.830	-805.27545	10.50318	-651.26709	765.23950	8.58088	-628.27875	-736.00366	11.57629	485.25073	678.13934	8.28123	588.29639	-9.87498	1308.03577	-962.96857	
1785	17.840	-805.45935	10.48739	-651.10730	765.15692	8.62008	-628.18274	-736.05975	11.44621	485.32263	678.09802	8.17849	588.35352	-9.89503	1308.23145	-962.72485	
1786	17.850	-805.33215	10.82205	-651.08203	765.06165	8.84349	-628.12451	-736.10510	11.36865	485.36688	678.11261	8.07492	588.37146	-9.98141	1308.42871	-962.61792	
1787	17.860	-805.39581	10.97010	-650.96765	765.00458	9.01064	-628.11371	-736.15546	11.33789	485.36142	678.04596	8.05533	588.41217	-10.04243	1308.59412	-962.60339	
1788	17.870	-805.45258	10.97620	-650.99438	764.95520	9.12013	-628.08282	-736.20142	11.34256	485.39743	678.06488	8.07465	588.44171	-10.07248	1308.77856	-962.55377	
1789	17.880	-805.50903	10.96134	-650.95538	764.97040	8.99155	-628.07355	-736.26556	11.29487	485.46832	678.08923	8.01046	588.46991	-10.14159	1308.91089	-962.49518	
1790	17.890	-805.49988	11.06951	-650.80786	765.01172	8.70474	-628.07935	-736.33862	11.23659	485.44592	677.93280	7.94758	588.47461	-10.23915	1308.90222	-962.35669	
1791	17.900	-805.72662	11.20141	-650.77631	764.83075	9.04544	-628.08606	-736.41455	11.19725	485.48935	677.83978	7.84912	588.47760	-10.23218	1308.96753	-962.24249	
1792	17.910	-805.72968	11.29216	-650.59052	764.72614	9.25193	-628.11829	-736.45166	11.09756	485.56500	677.91504	7.74733	588.53784	-10.28439	1309.02429	-962.25098	
1793	17.920	-805.76544	11.38920	-650.58362	764.72742	9.20918	-628.09827	-736.51367	11.13264	485.54916	677.78992	7.79643	588.52130	-10.54519	1309.11365	-962.17346	
1794	17.930	-805.90399	11.42392	-650.63354	764.71210	9.25023	-628.12976	-736.55835	11.17632	485.57547	677.81696	7.78942	588.52673	-10.67444	1309.16638	-962.06219	
1795	17.940	-805.77484	11.44856	-650.46655	764.67633	9.25875	-628.12744	-736.61865	11.10754	485.55875	677.90063	7.68324	588.55865	-10.68616	1309.15503	-961.95319	
1796	17.950	-806.06348	11.54457	-650.56024	764.60028	9.33232	-628.14728	-736.61053	10.75875	485.71545	677.77142	7.68668	588.54095	-10.66715	1309.08203	-961.76593	
1797	17.960	-806.18701	11.42500	-650.60931	764.50250	9.19090	-628.12958	-736.73145	10.85445	485.64609	677.62579	7.73371	588.58374	-10.86654	1309.12085	-961.54712	
1798	17.970	-806.19604	11.40027	-650.54156	764.47131	9.23343	-628.14117	-736.78162	10.93226	485.63937	677.54797	7.72222	588.59949	-11.06156	1309.12927	-961.41498	
1799	17.980	-806.41229	11.49777	-650.77155	764.39545	9.32704	-628.17023	-736.87433	10.99446	485.66089	677.45990	7.83149	588.56610	-11.07434	1309.17859	-961.30756	
1800	17.990	-806.45416	11.41363	-650.69598	764.32184	9.35109	-628.18066	-736.95221	10.96635	485.61102	677.38580	7.88159	588.54132	-11.11966	1309.17920	-961.37555	
1801	18.000	-806.54291	11.32258	-650.75403	764.25562	9.24660	-628.13293	-737.08752	10.96216	485.59778	677.16205	7.83103	588.51312	-11.29674	1309.07166	-961.34680	
1802	18.010	-806.68738	11.06708	-650.65247	764.10541	9.04693	-628.12750	-737.28656	10.90654	485.63885	676.96417	7.76154	588.59424	-11.39159	1308.98828	-961.42810	
1803	18.020	-806.70544	10.95644	-650.56927	764.03375	9.13317	-628.08276	-737.31812	10.92712	485.69958	677.04144	7.89904	588.72461	-11.44566	1308.99255	-961.52118	
1804	18.030	-806.75604	11.04620	-650.62097	763.96399	9.21992	-628.12134	-737.37531	10.97556	485.65894	676.91962	7.90341	588.76782	-11.49704	1309.00415	-961.67023	
1805	18.040	-806.90570	11.07111	-650.86841	763.87054	9.11931	-628.15338	-737.43481	11.02523	485.61136	676.82776	7.95381	588.72290	-11.61997	1309.11658	-961.94867	
1806	18.050	-807.12939	11.06233	-651.10175	763.71674	9.06294	-628.20795	-737.56055	10.98752	485.57477	676.64514	7.97895	588.69757	-11.65777	1309.11060	-962.14832	
1807	18.060	-807.20026	10.96718	-651.12518	763.55988	8.96600	-628.17877	-737.82111	10.98724	485.56662	676.42853	8.04106	588.40314	-11.91368	1308.92383	-962.34424	
1808	18.070	-807.16046	10.89262	-651.02509	763.50299	8.83929	-628.16992	-737.89911	11.02692	485.57199	676.29779	7.95104	588.75232	-12.01636	1308.61157	-962.48596	
1809	18.080	-807.15961	10.84166	-651.05707	763.42053	8.71088	-628.19580	-737.93268	11.09298	485.53925	676.22388	8.01313	588.71014	-12.12025	1308.40259	-962.60748	
1810	18.090	-807.32782	10.86717	-651.22272	763.34686	8.61331	-628.23840	-737.96497	11.30881	485.43225	676.01453	7.99980	588.67365	-12.17268	1308.19934	-962.82361	
1811	18.100	-807.50555	10.83111	-651.41107	763.20001	8.47696	-628.30609	-738.03925	11.50721	485.26364	675.54688	7.81114	588.47955	-12.25876	1307.92358	-963.08997	
1812	18.110	-807.71503	10.68534	-651.47949	763.02185	8.08530	-628.32025	-738.24841	11.61044	485.19751	676.09894	8.59141	588.22839	-12.46238	1307.62378	-963.40942	
1813	18.120	-807.90204	10.27056	-651.52161	762.82825	7.79890	-628.33905	-738.43292	11.73410	485.17764	675.94818	8.62990	588.16455	-12.57892	1307.40710	-963.63544	
1814	18.130	-808.05725	9.85609	-651.62555	762.69440	7.57913	-628.39240	-738.52765	11.70365	485.38364	675.52344	8.79294	588.18909	-12.44458	1307.08423	-964.01093	
1815	18.140	-807.95007	9.95011	-651.64716	762.60742	7.51771	-628.45410	-738.74896	12.12169	485.12875	675.32593	8.91831	588.17828	-12.52188	1306.86877	-964.52454	
1816	18.150	-808.22595	9.38337	-651.66998	762.52032	7.38459	-628.46844	-738.80530	12.31190	485.05838	675.11023	9.08898	587.57440	-12.80915	1306.51111	-965.34705	
1817	18.160	-808.26831	9.23070	-651.59662	762.37708	7.22129	-628.58002	-738.95203	12.45618	485.00598	675.01117	9.19943	587.53033	-12.98048	1306.16711	-966.26733	
